# This file uses millimeters as units for non-parametric coordinates.

g default
v -0.500000 -0.506068 0.500000
v 0.500000 -0.506068 0.500000
v -0.500000 -0.506068 -0.500000
v 0.500000 -0.506068 -0.500000
v -0.500000 0.500000 0.500000
v 0.500000 0.500000 0.500000
v -0.500000 0.500000 -0.500000
v 0.500000 0.500000 -0.500000
vt 0.360892 0.360892
vt 0.639108 0.360892
vt 0.360892 0.639108
vt 0.639108 0.639108
vt 0.000000 0.000000
vt 1.000000 0.000000
vt 1.000000 1.000000
vt 0.000000 1.000000
vn 0.000000 -1.000000 0.000000
vn 0.000000 -1.000000 0.000000
vn 0.000000 -1.000000 0.000000
vn 0.000000 -1.000000 0.000000
vn 0.000000 1.000000 0.000000
vn 0.000000 1.000000 0.000000
vn 0.000000 1.000000 0.000000
vn 0.000000 1.000000 0.000000
s off
g tile_F_base
f 1/1/1 3/3/2 4/4/3 2/2/4
f 5/5/5 6/6/6 8/7/7 7/8/8
