g Cylinder.003
v 0.001950903 0.009807852 0.0012
v 0.001457493 0.00732731 0.0012
v 3.062403E-10 0.007470862 0.0012
v 0 0.01 0.0012
v 0.003826834 0.009238794 0.0012
v 0.002858975 0.006902175 0.0012
v 0.005555702 0.008314696 0.0012
v 0.004150588 0.006211794 0.0012
v 0.007071068 0.007071068 0.0012
v 0.005282696 0.005282697 0.0012
v 0.002655653 0.003974466 0.0012
v 0.003380005 0.003380006 0.0012
v 0.008314696 0.005555702 0.0012
v 0.006211794 0.004150588 0.0012
v -0.001457481 0.007327313 0.0012
v -0.001950888 0.009807855 0.0012
v -0.002858964 0.00690218 0.0012
v -0.003826821 0.009238801 0.0012
v -0.004150579 0.006211801 0.0012
v -0.005555691 0.008314704 0.0012
v -0.00528269 0.005282704 0.0012
v -0.007071059 0.007071076 0.0012
v -0.006211788 0.004150597 0.0012
v -0.00831469 0.005555713 0.0012
v 0.009238794 0.003826834 0.0012
v 0.006902175 0.002858975 0.0012
v 0.009807852 0.001950903 0.0012
v 0.00732731 0.001457494 0.0012
v 0.01 7.54979E-10 0.0012
v 0.007470862 1.287092E-09 0.0012
v -0.006902172 0.002858983 0.0012
v -0.009238791 0.003826845 0.0012
v -0.007327309 0.001457501 0.0012
v -0.00980785 0.001950913 0.0012
v -0.007470862 7.936915E-09 0.0012
v -0.01 9.655992E-09 0.0012
v 0.004416189 0.001829247 0.0012
v 0.003974466 0.002655654 0.0012
v 0.004688201 0.0009325427 0.0012
v 0.004780049 1.709072E-09 0.0012
v -0.00478005 5.9638E-09 0.0012
v -0.004688201 0.0009325477 0.0012
v -0.004416187 0.001829252 0.0012
v -0.003974461 0.002655659 0.0012
v -0.003380001 0.003380011 0.0012
v -0.002655647 0.00397447 0.0012
v -0.001829238 0.004416193 0.0012
v -0.0009325334 0.004688203 0.0012
v 5.112526E-10 0.004780049 0.0012
v 0.0009325414 0.004688201 0.0012
v 0.001829246 0.00441619 0.0012
vt 0.4378321 0.01407806
vt 0.4378368 0.4935926
vt 0.5000024 0.4935926
vt 0.4999976 0.01407806
vt 0.3756665 0.01407806
vt 0.3756712 0.4935926
vt 0.3135009 0.01407806
vt 0.3135056 0.4935926
vt 0.2513353 0.01407806
vt 0.2513401 0.4935926
vt 0.3135009 0.9987358
vt 0.2513353 0.9987358
vt 0.1891702 0.01407806
vt 0.189175 0.4935926
vt 0.5621675 0.4935926
vt 0.5621627 0.01407806
vt 0.6243336 0.4935926
vt 0.6243288 0.01407806
vt 0.6864997 0.4935926
vt 0.6864949 0.01407806
vt 0.7486647 0.4935926
vt 0.74866 0.01407806
vt 0.8108309 0.4935926
vt 0.8108261 0.01407806
vt 0.1270036 0.01407806
vt 0.1270084 0.4935926
vt 0.06483802 0.01407806
vt 0.06484279 0.4935926
vt 0.002672404 0.01407806
vt 0.002677172 0.4935926
vt 0.872996 0.4935926
vt 0.8729912 0.01407806
vt 0.9351621 0.4935926
vt 0.9351573 0.01407806
vt 0.9973271 0.4935926
vt 0.9973224 0.01407806
vt 0.1270036 0.9987358
vt 0.1891702 0.9987358
vt 0.06483802 0.9987358
vt 0.002672404 0.9987358
vt 0.9973224 0.9987358
vt 0.9351573 0.9987358
vt 0.8729912 0.9987358
vt 0.8108261 0.9987358
vt 0.74866 0.9987358
vt 0.6864949 0.9987358
vt 0.6243288 0.9987358
vt 0.5621627 0.9987358
vt 0.4999976 0.9987358
vt 0.4378321 0.9987358
vt 0.3756665 0.9987358
vn 0 0 1
vn 0 0 1
vn 0 0 1
vn 0 0 1
vn 0 0 1
vn 0 0 1
vn 0 0 1
vn 0 0 1
vn 0 0 1
vn 0 0 1
vn 0 0 1
vn 0 0 1
vn 0 0 1
vn 0 0 1
vn 0 0 1
vn 0 0 1
vn 0 0 1
vn 0 0 1
vn 0 0 1
vn 0 0 1
vn 0 0 1
vn 0 0 1
vn 0 0 1
vn 0 0 1
vn 0 0 1
vn 0 0 1
vn 0 0 1
vn 0 0 1
vn 0 0 1
vn 0 0 1
vn 0 0 1
vn 0 0 1
vn 0 0 1
vn 0 0 1
vn 0 0 1
vn 0 0 1
vn 0 0 1
vn 0 0 1
vn 0 0 1
vn 0 0 1
vn 0 0 1
vn 0 0 1
vn 0 0 1
vn 0 0 1
vn 0 0 1
vn 0 0 1
vn 0 0 1
vn 0 0 1
vn 0 0 1
vn 0 0 1
vn 0 0 1
g Cylinder.003_0
f 3/3/3 2/2/2 1/1/1
f 4/4/4 3/3/3 1/1/1
f 1/1/1 2/2/2 5/5/5
f 2/2/2 6/6/6 5/5/5
f 5/5/5 6/6/6 7/7/7
f 6/6/6 8/8/8 7/7/7
f 7/7/7 8/8/8 9/9/9
f 8/8/8 10/10/10 9/9/9
f 8/8/8 11/11/11 10/10/10
f 11/11/11 12/12/12 10/10/10
f 9/9/9 10/10/10 13/13/13
f 10/10/10 14/14/14 13/13/13
f 10/10/10 12/12/12 14/14/14
f 15/15/15 3/3/3 4/4/4
f 16/16/16 15/15/15 4/4/4
f 17/17/17 15/15/15 16/16/16
f 18/18/18 17/17/17 16/16/16
f 19/19/19 17/17/17 18/18/18
f 20/20/20 19/19/19 18/18/18
f 21/21/21 19/19/19 20/20/20
f 22/22/22 21/21/21 20/20/20
f 23/23/23 21/21/21 22/22/22
f 24/24/24 23/23/23 22/22/22
f 13/13/13 14/14/14 25/25/25
f 14/14/14 26/26/26 25/25/25
f 25/25/25 26/26/26 27/27/27
f 26/26/26 28/28/28 27/27/27
f 27/27/27 28/28/28 29/29/29
f 28/28/28 30/30/30 29/29/29
f 31/31/31 23/23/23 24/24/24
f 32/32/32 31/31/31 24/24/24
f 33/33/33 31/31/31 32/32/32
f 34/34/34 33/33/33 32/32/32
f 35/35/35 33/33/33 34/34/34
f 36/36/36 35/35/35 34/34/34
f 26/26/26 37/37/37 28/28/28
f 38/38/38 37/37/37 26/26/26
f 14/14/14 38/38/38 26/26/26
f 12/12/12 38/38/38 14/14/14
f 37/37/37 39/39/39 28/28/28
f 28/28/28 39/39/39 30/30/30
f 39/39/39 40/40/40 30/30/30
f 35/35/35 41/41/41 33/33/33
f 41/41/41 42/42/42 33/33/33
f 33/33/33 42/42/42 31/31/31
f 42/42/42 43/43/43 31/31/31
f 31/31/31 43/43/43 23/23/23
f 43/43/43 44/44/44 23/23/23
f 23/23/23 44/44/44 21/21/21
f 44/44/44 45/45/45 21/21/21
f 21/21/21 45/45/45 19/19/19
f 45/45/45 46/46/46 19/19/19
f 19/19/19 46/46/46 17/17/17
f 46/46/46 47/47/47 17/17/17
f 17/17/17 47/47/47 15/15/15
f 47/47/47 48/48/48 15/15/15
f 15/15/15 48/48/48 3/3/3
f 48/48/48 49/49/49 3/3/3
f 3/3/3 49/49/49 2/2/2
f 49/49/49 50/50/50 2/2/2
f 2/2/2 50/50/50 6/6/6
f 50/50/50 51/51/51 6/6/6
f 6/6/6 51/51/51 8/8/8
f 51/51/51 11/11/11 8/8/8
