# This file uses millimeters as units for non-parametric coordinates.

g default
v -0.068524 0.007101 -0.210047
v -0.197762 0.007101 -0.078805
v -0.106034 0.097662 -0.246984
v -0.235272 0.097662 -0.115742
v -0.062685 0.013106 -0.204297
v -0.191922 0.013106 -0.073055
v -0.304757 0.421098 0.500000
v -0.500000 0.500000 0.500000
v -0.500000 0.500000 -0.500000
v 0.500000 0.500000 -0.500000
v 0.500000 0.421098 -0.304757
v 0.500000 0.330764 -0.250815
v -0.250814 0.330764 0.500000
v 0.500000 -0.241093 -0.250815
v -0.250814 -0.241093 0.500000
v 0.500000 -0.248188 -0.248254
v -0.248254 -0.248188 0.500000
v 0.500000 -0.470677 -0.095198
v -0.095198 -0.470677 0.500000
v 0.500000 -0.491781 -0.090077
v -0.090077 -0.491781 0.500000
v 0.500000 -0.492385 -0.086153
v -0.086153 -0.492385 0.500000
v 0.500000 -0.454680 -0.084852
v -0.084851 -0.454680 0.500000
v 0.500000 -0.455066 -0.071130
v -0.071129 -0.455066 0.500000
v 0.500000 -0.500000 -0.043424
v -0.043424 -0.500000 0.500000
v -0.304589 0.421098 -0.036336
v -0.250747 0.330764 -0.000475
v -0.250747 -0.241093 -0.000475
v -0.249040 -0.248188 0.000378
v -0.095455 -0.470677 0.102943
v -0.090806 -0.491781 0.105886
v -0.088190 -0.492385 0.107194
v -0.084439 -0.454680 0.110511
v -0.071393 -0.455066 0.118984
v -0.043261 -0.500000 0.137880
v -0.036337 0.421098 -0.304589
v -0.000475 0.330764 -0.250747
v -0.000475 -0.241093 -0.250747
v 0.000378 -0.248188 -0.249040
v 0.102944 -0.470677 -0.095456
v 0.105886 -0.491781 -0.090806
v 0.107194 -0.492385 -0.088190
v 0.110512 -0.454680 -0.084439
v 0.118984 -0.455066 -0.071393
v 0.137881 -0.500000 -0.043261
v -0.478906 0.499998 -0.140091
v -0.141276 0.499998 -0.478860
v -0.186451 -0.194310 -0.064771
v -0.064395 -0.194310 -0.186827
v -0.064395 0.266077 -0.186827
v -0.186451 0.266077 -0.064771
v -0.180920 -0.186716 -0.070302
v -0.069927 -0.186716 -0.181295
v -0.069927 0.258483 -0.181295
v -0.180920 0.258483 -0.070302
v -0.172713 -0.166513 -0.083052
v -0.082677 -0.166513 -0.173089
v -0.152841 0.188352 -0.243253
v -0.242876 0.188352 -0.153218
v -0.478894 0.499912 0.500000
v 0.500000 0.499708 -0.478940
v -0.068524 0.048403 -0.210047
v -0.197762 0.048403 -0.078805
v -0.106034 0.138964 -0.246984
v -0.235272 0.138964 -0.115742
v -0.062685 0.054407 -0.204297
v -0.191922 0.054407 -0.073055
v -0.068524 0.089704 -0.210047
v -0.197762 0.089704 -0.078805
v -0.106034 0.180265 -0.246984
v -0.235272 0.180265 -0.115742
v -0.062685 0.095709 -0.204297
v -0.191922 0.095709 -0.073055
v -0.068524 0.131006 -0.210047
v -0.197762 0.131006 -0.078805
v -0.106034 0.221567 -0.246984
v -0.235272 0.221567 -0.115742
v -0.062685 0.137011 -0.204297
v -0.191922 0.137011 -0.073055
v -0.068524 0.172308 -0.210047
v -0.197762 0.172308 -0.078805
v -0.106034 0.262869 -0.246984
v -0.235272 0.262869 -0.115742
v -0.062685 0.178312 -0.204297
v -0.191922 0.178312 -0.073055
v -0.068524 0.213609 -0.210047
v -0.197762 0.213609 -0.078805
v -0.106034 0.304171 -0.246984
v -0.235272 0.304171 -0.115742
v -0.062685 0.219614 -0.204297
v -0.191922 0.219614 -0.073055
vt 0.502397 0.990763
vt 0.444793 0.990763
vt 0.444793 0.889470
vt 0.502397 0.889470
vt 0.507985 0.889470
vt 0.565271 0.889470
vt 0.565271 0.990763
vt 0.507985 0.990763
vt 0.984861 0.783214
vt 0.985083 0.845206
vt 0.669314 0.845206
vt 0.690206 0.783214
vt 0.983673 0.427441
vt 0.984861 0.764113
vt 0.690206 0.764113
vt 0.689019 0.427441
vt 0.983656 0.408745
vt 0.983673 0.413012
vt 0.689019 0.413012
vt 0.689505 0.408745
vt 0.983106 0.249397
vt 0.749339 0.249397
vt 0.983106 0.239170
vt 0.749339 0.239170
vt 0.751021 0.226465
vt 0.983055 0.226465
vt 0.751787 0.223541
vt 0.983049 0.223541
vt 0.982877 0.195255
vt 0.983049 0.216179
vt 0.751787 0.216179
vt 0.753572 0.195255
vt 0.982877 0.186841
vt 0.753572 0.186841
vt 0.758492 0.179139
vt 0.982806 0.179139
vt 0.982512 0.139422
vt 0.982806 0.170726
vt 0.758492 0.170726
vt 0.769323 0.139422
vt 0.398521 0.979222
vt 0.021666 0.979222
vt 0.021678 0.866363
vt 0.337447 0.866363
vt 0.337447 0.845353
vt 0.021678 0.845353
vt 0.021685 0.783360
vt 0.316341 0.783360
vt 0.316341 0.764260
vt 0.021685 0.764260
vt 0.021685 0.427588
vt 0.316341 0.427588
vt 0.316341 0.413158
vt 0.021685 0.413158
vt 0.021685 0.408892
vt 0.315840 0.408892
vt 0.021574 0.249544
vt 0.255343 0.249544
vt 0.253602 0.226611
vt 0.255343 0.239317
vt 0.021574 0.239317
vt 0.021567 0.226611
vt 0.252829 0.223687
vt 0.021562 0.223687
vt 0.252829 0.216325
vt 0.021562 0.216325
vt 0.021616 0.195402
vt 0.250928 0.195402
vt 0.245965 0.179286
vt 0.250928 0.186988
vt 0.021616 0.186988
vt 0.021643 0.179286
vt 0.245965 0.170872
vt 0.021643 0.170872
vt 0.021748 0.139569
vt 0.234946 0.139569
vt 0.610158 0.310833
vt 0.610512 0.315167
vt 0.402130 0.315045
vt 0.402486 0.310757
vt 0.588958 0.141901
vt 0.423766 0.141872
vt 0.588248 0.117303
vt 0.588958 0.130136
vt 0.423766 0.130106
vt 0.424477 0.117298
vt 0.587702 0.115613
vt 0.425021 0.115645
vt 0.587514 0.080674
vt 0.587702 0.103084
vt 0.425021 0.103116
vt 0.425195 0.080740
vt 0.585606 0.062124
vt 0.587514 0.071094
vt 0.425195 0.071159
vt 0.427093 0.062207
vt 0.430919 0.021190
vt 0.581743 0.021105
vt 0.585606 0.054017
vt 0.427093 0.054100
vt 0.609412 0.676513
vt 0.616865 0.741492
vt 0.393511 0.741377
vt 0.401029 0.676384
vt 0.616865 0.753244
vt 0.645661 0.878448
vt 0.364068 0.877840
vt 0.393511 0.753129
vt 0.351431 0.383086
vt 0.363824 0.185162
vt 0.363824 0.735092
vt 0.351431 0.735091
vt 0.764135 0.025983
vt 0.987702 0.026508
vt 0.987561 0.103763
vt 0.763994 0.103238
vt 0.455623 0.353204
vt 0.402130 0.325569
vt 0.610512 0.325692
vt 0.557249 0.353144
vt 0.609412 0.662376
vt 0.556253 0.624199
vt 0.401029 0.662247
vt 0.454626 0.624256
vt 0.460230 0.357682
vt 0.552643 0.357609
vt 0.551647 0.619720
vt 0.459229 0.619792
vt 0.105583 0.023404
vt 0.121665 0.028186
vt 0.035353 0.029428
vt 0.051290 0.024185
vt 0.662149 0.253962
vt 0.605369 0.016279
vt 0.669994 0.039757
vt 0.669885 0.248070
vt 0.124002 0.043344
vt 0.108757 0.111791
vt 0.054462 0.112400
vt 0.037686 0.044312
vt 0.684048 0.247441
vt 0.684255 0.039133
vt 0.748915 0.015754
vt 0.691776 0.253345
vt 0.985083 0.866216
vt 0.985503 0.979076
vt 0.607953 0.979076
vt 0.669314 0.866216
vt 0.653269 0.274269
vt 0.653269 0.824195
vt 0.640877 0.626968
vt 0.640877 0.274315
vt 0.146602 0.011932
vt 0.409626 0.012500
vt 0.278275 0.160150
vt 0.502397 0.990763
vt 0.444793 0.990763
vt 0.444793 0.889470
vt 0.502397 0.889470
vt 0.507985 0.889470
vt 0.565271 0.889470
vt 0.565271 0.990763
vt 0.507985 0.990763
vt 0.502397 0.990763
vt 0.444793 0.990763
vt 0.444793 0.889470
vt 0.502397 0.889470
vt 0.507985 0.889470
vt 0.565271 0.889470
vt 0.565271 0.990763
vt 0.507985 0.990763
vt 0.502397 0.990763
vt 0.444793 0.990763
vt 0.444793 0.889470
vt 0.502397 0.889470
vt 0.507985 0.889470
vt 0.565271 0.889470
vt 0.565271 0.990763
vt 0.507985 0.990763
vt 0.502397 0.990763
vt 0.444793 0.990763
vt 0.444793 0.889470
vt 0.502397 0.889470
vt 0.507985 0.889470
vt 0.565271 0.889470
vt 0.565271 0.990763
vt 0.507985 0.990763
vt 0.502397 0.990763
vt 0.444793 0.990763
vt 0.444793 0.889470
vt 0.502397 0.889470
vt 0.507985 0.889470
vt 0.565271 0.889470
vt 0.565271 0.990763
vt 0.507985 0.990763
vn -0.616010 -0.502563 -0.606599
vn -0.616010 -0.502563 -0.606599
vn -0.616010 -0.502563 -0.606599
vn -0.616010 -0.502563 -0.606599
vn 0.578376 0.584041 0.569542
vn 0.578376 0.584040 0.569542
vn 0.578376 0.584041 0.569542
vn 0.578376 0.584040 0.569542
vn 0.000196 0.512369 0.858766
vn 0.000196 0.512369 0.858766
vn 0.000196 0.512369 0.858766
vn 0.000196 0.512369 0.858766
vn 0.000126 0.003682 0.999993
vn 0.000136 0.000000 1.000000
vn 0.000136 0.000000 1.000000
vn 0.000126 0.003412 0.999994
vn -0.000952 0.559771 0.828647
vn 0.000126 0.003682 0.999993
vn 0.000126 0.003412 0.999994
vn -0.000950 0.556879 0.830593
vn -0.000959 0.567281 0.823524
vn -0.000952 0.559771 0.828647
vn -0.000950 0.556879 0.830593
vn -0.000959 0.567281 0.823523
vn -0.001215 0.225432 0.974258
vn -0.001215 0.225432 0.974258
vn -0.001215 0.225432 0.974258
vn -0.001215 0.225432 0.974258
vn -0.000639 0.983361 0.181660
vn -0.000639 0.983361 0.181660
vn -0.000639 0.983361 0.181660
vn -0.000639 0.983361 0.181660
vn 0.002072 0.066758 -0.997767
vn 0.002072 0.066758 -0.997767
vn 0.002072 0.066758 -0.997767
vn 0.002072 0.066758 -0.997767
vn 0.000006 0.999586 0.028781
vn 0.000006 0.999586 0.028781
vn 0.000006 0.999586 0.028781
vn 0.000006 0.999586 0.028781
vn -0.000115 0.527733 0.849410
vn -0.000115 0.527733 0.849410
vn -0.000115 0.527733 0.849410
vn -0.000115 0.527733 0.849410
vn 0.412313 0.911042 0.000122
vn 0.412313 0.911042 0.000122
vn 0.412313 0.911042 0.000122
vn 0.412313 0.911042 0.000122
vn 0.858765 0.512369 0.000195
vn 0.858765 0.512369 0.000195
vn 0.858765 0.512369 0.000195
vn 0.858765 0.512369 0.000195
vn 1.000000 0.000000 0.000135
vn 1.000000 0.000000 0.000135
vn 0.999993 0.003682 0.000125
vn 0.999994 0.003413 0.000125
vn 0.999994 0.003413 0.000125
vn 0.999993 0.003682 0.000125
vn 0.828646 0.559772 -0.000952
vn 0.830592 0.556880 -0.000949
vn 0.830592 0.556880 -0.000949
vn 0.828646 0.559772 -0.000952
vn 0.823523 0.567282 -0.000959
vn 0.823523 0.567282 -0.000959
vn 0.974260 0.225423 -0.001215
vn 0.974260 0.225423 -0.001215
vn 0.974260 0.225423 -0.001215
vn 0.974260 0.225423 -0.001215
vn 0.181660 0.983361 -0.000639
vn 0.181660 0.983361 -0.000639
vn 0.181660 0.983361 -0.000639
vn 0.181659 0.983361 -0.000639
vn -0.997767 0.066759 0.002072
vn -0.997767 0.066759 0.002072
vn -0.997767 0.066759 0.002072
vn -0.997767 0.066759 0.002072
vn 0.028782 0.999586 0.000006
vn 0.028782 0.999586 0.000006
vn 0.028782 0.999586 0.000006
vn 0.028782 0.999586 0.000006
vn 0.849411 0.527731 -0.000115
vn 0.849411 0.527732 -0.000115
vn 0.849411 0.527731 -0.000115
vn 0.849411 0.527732 -0.000115
vn 0.554251 0.620977 0.554251
vn 0.707019 0.015707 0.707021
vn 0.707020 0.015608 0.707021
vn 0.554251 0.620976 0.554251
vn 0.548369 0.631334 0.548369
vn 0.554251 0.620977 0.554251
vn 0.554251 0.620976 0.554251
vn 0.548369 0.631334 0.548369
vn 0.685284 0.246522 0.685283
vn 0.685284 0.246522 0.685283
vn 0.685284 0.246522 0.685283
vn 0.685284 0.246522 0.685283
vn 0.150316 0.977144 0.150318
vn 0.150316 0.977144 0.150318
vn 0.150316 0.977144 0.150318
vn 0.150316 0.977144 0.150318
vn -0.700976 0.131401 -0.700976
vn -0.700976 0.131401 -0.700975
vn -0.700976 0.131401 -0.700976
vn -0.700976 0.131401 -0.700975
vn 0.017905 0.999679 0.017906
vn 0.017905 0.999679 0.017906
vn 0.017905 0.999679 0.017906
vn 0.017905 0.999679 0.017906
vn 0.568386 0.594875 0.568385
vn 0.568385 0.594875 0.568385
vn 0.568386 0.594875 0.568385
vn 0.568386 0.594875 0.568385
vn 0.578694 0.574654 0.578694
vn 0.578694 0.574654 0.578694
vn 0.578694 0.574654 0.578694
vn 0.578694 0.574654 0.578694
vn 0.263114 0.928332 0.262621
vn 0.263114 0.928332 0.262621
vn 0.263114 0.928332 0.262621
vn 0.263114 0.928332 0.262621
vn 0.000831 1.000000 0.000028
vn 0.000023 1.000000 0.000063
vn 0.001671 0.999999 0.000053
vn 0.001671 0.999999 0.000053
vn 0.682541 0.261311 0.682536
vn 0.682541 0.261311 0.682536
vn 0.682541 0.261311 0.682536
vn 0.682541 0.261311 0.682536
vn 0.707106 0.000000 0.707107
vn 0.707020 0.015608 0.707021
vn 0.707019 0.015707 0.707021
vn 0.707106 0.000000 0.707107
vn 0.707019 0.015707 0.707021
vn 0.707106 0.000000 0.707107
vn 0.707107 0.000000 0.707107
vn 0.707106 0.000000 0.707107
vn 0.707107 0.000000 0.707107
vn 0.707107 0.000000 0.707107
vn 0.707107 0.000000 0.707107
vn 0.707106 0.000000 0.707107
vn 0.707106 0.000000 0.707107
vn 0.707107 0.000000 0.707107
vn 0.707107 0.000000 0.707107
vn 0.707020 0.015608 0.707021
vn 0.707104 0.000000 0.707110
vn 0.707112 0.000000 0.707101
vn 0.707114 0.000002 0.707100
vn 0.707112 0.000000 0.707101
vn 0.707106 0.000002 0.707108
vn 0.707114 0.000002 0.707100
vn 0.707104 0.000000 0.707110
vn 0.707106 0.000002 0.707108
vn 0.661758 0.352365 0.661751
vn 0.707104 0.000000 0.707110
vn 0.707112 0.000000 0.707101
vn 0.661758 0.352365 0.661751
vn 0.707112 0.000000 0.707101
vn 0.707114 0.000002 0.707100
vn -0.304789 0.055838 0.950782
vn -0.304789 0.055838 0.950782
vn 0.707106 0.000002 0.707108
vn 0.399449 -0.825156 0.399447
vn 0.399449 -0.825156 0.399447
vn 0.707114 0.000002 0.707100
vn 0.950782 0.055838 -0.304788
vn 0.950782 0.055838 -0.304788
vn 0.707106 0.000002 0.707108
vn 0.707104 0.000000 0.707110
vn 0.000311 0.911264 0.411823
vn 0.000311 0.911264 0.411823
vn 0.000311 0.911264 0.411823
vn 0.000311 0.911264 0.411823
vn 0.000177 0.999985 0.005430
vn 0.000023 1.000000 0.000063
vn 0.000089 0.999996 0.002691
vn 0.000177 0.999985 0.005430
vn 0.000831 1.000000 0.000028
vn 0.000089 0.999996 0.002691
vn 0.000023 1.000000 0.000063
vn -0.616010 -0.502563 -0.606599
vn -0.616010 -0.502563 -0.606599
vn -0.616010 -0.502563 -0.606599
vn -0.616010 -0.502563 -0.606599
vn 0.578377 0.584040 0.569542
vn 0.578377 0.584040 0.569542
vn 0.578377 0.584040 0.569542
vn 0.578377 0.584040 0.569542
vn -0.616009 -0.502563 -0.606600
vn -0.616009 -0.502563 -0.606600
vn -0.616009 -0.502563 -0.606600
vn -0.616009 -0.502563 -0.606600
vn 0.578376 0.584040 0.569542
vn 0.578376 0.584040 0.569542
vn 0.578376 0.584040 0.569542
vn 0.578376 0.584040 0.569542
vn -0.616009 -0.502563 -0.606600
vn -0.616009 -0.502563 -0.606600
vn -0.616009 -0.502563 -0.606600
vn -0.616009 -0.502563 -0.606600
vn 0.578376 0.584040 0.569542
vn 0.578376 0.584040 0.569542
vn 0.578376 0.584040 0.569542
vn 0.578376 0.584040 0.569542
vn -0.616010 -0.502562 -0.606600
vn -0.616010 -0.502562 -0.606600
vn -0.616010 -0.502562 -0.606600
vn -0.616010 -0.502562 -0.606600
vn 0.578377 0.584040 0.569542
vn 0.578377 0.584040 0.569542
vn 0.578377 0.584040 0.569542
vn 0.578377 0.584040 0.569542
vn -0.616009 -0.502562 -0.606600
vn -0.616009 -0.502562 -0.606600
vn -0.616009 -0.502562 -0.606600
vn -0.616009 -0.502562 -0.606600
vn 0.578376 0.584040 0.569542
vn 0.578376 0.584040 0.569542
vn 0.578376 0.584040 0.569542
vn 0.578376 0.584040 0.569542
s 1
g tile_Ci_wall
f 2/1/1 4/2/2 3/3/3 1/4/4
f 5/5/5 3/6/6 4/7/7 6/8/8
f 5/5/5 6/8/8 2/1/1 1/4/4
s off
f 12/9/9 11/10/10 40/11/11 41/12/12
f 14/13/13 12/14/14 41/15/15 42/16/16
f 16/17/17 14/18/18 42/19/19 43/20/20
f 18/21/21 16/17/22 43/20/23 44/22/24
f 18/23/25 44/24/26 45/25/27 20/26/28
f 20/26/29 45/25/30 46/27/31 22/28/32
f 24/29/33 22/30/34 46/31/35 47/32/36
f 24/33/37 47/34/38 48/35/39 26/36/40
f 28/37/41 26/38/42 48/39/43 49/40/44
f 50/41/45 64/42/46 7/43/47 30/44/48
f 30/45/49 7/46/50 13/47/51 31/48/52
f 31/49/53 13/50/54 15/51/55 32/52/56
f 32/53/57 15/54/58 17/55/59 33/56/60
f 33/56/61 17/55/62 19/57/63 34/58/64
f 35/59/65 34/60/66 19/61/67 21/62/68
f 36/63/69 35/59/70 21/62/71 23/64/72
f 36/65/73 23/66/74 25/67/75 37/68/76
f 38/69/77 37/70/78 25/71/79 27/72/80
f 38/73/81 27/74/82 29/75/83 39/76/84
f 43/77/85 42/78/86 32/79/87 33/80/88
f 44/81/89 43/77/90 33/80/91 34/82/92
f 45/83/93 44/84/94 34/85/95 35/86/96
f 46/87/97 45/83/98 35/86/99 36/88/100
f 47/89/101 46/90/102 36/91/103 37/92/104
f 48/93/105 47/94/106 37/95/107 38/96/108
f 39/97/109 49/98/110 48/99/111 38/100/112
f 41/101/113 40/102/114 30/103/115 31/104/116
f 40/105/117 51/106/118 50/107/119 30/108/120
f 50/109/121 9/110/122 8/111/123 64/112/124
f 61/113/125 62/114/126 63/115/127 60/116/128
s 2
f 52/117/129 32/118/130 42/119/131 53/120/132
s 3
f 42/119/133 41/121/134 54/122/135 53/120/136
s 4
f 31/123/137 55/124/138 54/122/139 41/121/140
s 5
f 52/117/141 55/124/142 31/123/143 32/118/144
s 2
f 56/125/145 52/117/129 53/120/132 57/126/146
s 3
f 53/120/136 54/122/135 58/127/147 57/126/148
s 4
f 55/124/138 59/128/149 58/127/150 54/122/139
s 5
f 56/125/151 59/128/152 55/124/142 52/117/141
s off
f 60/129/153 56/130/154 57/131/155 61/132/156
f 57/133/157 58/134/158 62/135/159 61/136/160
f 59/137/161 63/138/162 62/139/163 58/140/164
f 60/141/165 63/142/166 59/143/167 56/144/168
f 11/145/169 65/146/170 51/147/171 40/148/172
f 10/149/173 9/150/174 51/151/175 65/152/176
f 50/153/177 51/154/178 9/155/179
s 6
f 67/156/180 69/157/181 68/158/182 66/159/183
f 70/160/184 68/161/185 69/162/186 71/163/187
f 70/160/184 71/163/187 67/156/180 66/159/183
s 7
f 73/164/188 75/165/189 74/166/190 72/167/191
f 76/168/192 74/169/193 75/170/194 77/171/195
f 76/168/192 77/171/195 73/164/188 72/167/191
s 8
f 79/172/196 81/173/197 80/174/198 78/175/199
f 82/176/200 80/177/201 81/178/202 83/179/203
f 82/176/200 83/179/203 79/172/196 78/175/199
s 9
f 85/180/204 87/181/205 86/182/206 84/183/207
f 88/184/208 86/185/209 87/186/210 89/187/211
f 88/184/208 89/187/211 85/180/204 84/183/207
s 10
f 91/188/212 93/189/213 92/190/214 90/191/215
f 94/192/216 92/193/217 93/194/218 95/195/219
f 94/192/216 95/195/219 91/188/212 90/191/215
